<?xml version="1.0" encoding="UTF-8" standalone="no" ?>
<!DOCTYPE svg PUBLIC "-//W3C//DTD SVG 1.1//EN" "http://www.w3.org/Graphics/SVG/1.1/DTD/svg11.dtd">
<svg xmlns="http://www.w3.org/2000/svg" xmlns:xlink="http://www.w3.org/1999/xlink" version="1.1" width="1080" height="1080" viewBox="0 0 1080 1080" xml:space="preserve">
<desc>Created with Fabric.js 5.2.4</desc>
<defs>
</defs>
<g transform="matrix(1 0 0 1 540 540)" id="d425e481-8b3c-4e95-9a9d-4932c8332fe7"  >
<rect style="stroke: none; stroke-width: 1; stroke-dasharray: none; stroke-linecap: butt; stroke-dashoffset: 0; stroke-linejoin: miter; stroke-miterlimit: 4; fill: rgb(255,255,255); fill-rule: nonzero; opacity: 1; visibility: hidden;" vector-effect="non-scaling-stroke"  x="-540" y="-540" rx="0" ry="0" width="1080" height="1080" />
</g>
<g transform="matrix(1 0 0 1 540 540)" id="cf00fadf-8447-4c3c-b46b-b560424584e5"  >
</g>
<g transform="matrix(1 0 0 1 540 540)" id="97bbf55a-e17d-4f9f-bce3-4d0eea4571bc"  >
<path style="stroke: rgb(0,0,0); stroke-width: 0; stroke-dasharray: none; stroke-linecap: butt; stroke-dashoffset: 0; stroke-linejoin: miter; stroke-miterlimit: 4; fill: rgb(0,0,0); fill-rule: nonzero; opacity: 1;" vector-effect="non-scaling-stroke"  transform=" translate(-235.85, -235.85)" d="M 433.601 67.001 C 408.901 42.301 376.201 28.801000000000002 341.301 28.801000000000002 C 306.40099999999995 28.801000000000002 273.601 42.401 248.90099999999998 67.101 L 236.00099999999998 80.001 L 222.90099999999998 66.90100000000001 C 198.201 42.20100000000001 165.301 28.501000000000012 130.40099999999998 28.501000000000012 C 95.60099999999998 28.501000000000012 62.80099999999999 42.10100000000001 38.20099999999998 66.70100000000002 C 13.50099999999998 91.40100000000002 -0.09900000000001796 124.20100000000002 0.0009999999999763531 159.10100000000003 C 0.0009999999999763531 194.00100000000003 13.700999999999976 226.70100000000002 38.400999999999975 251.401 L 226.201 439.201 C 228.801 441.80100000000004 232.301 443.201 235.701 443.201 C 239.101 443.201 242.601 441.901 245.201 439.30100000000004 L 433.40099999999995 251.80100000000004 C 458.10099999999994 227.10100000000006 471.70099999999996 194.30100000000004 471.70099999999996 159.40100000000004 C 471.801 124.501 458.301 91.701 433.601 67.001 z M 414.401 232.701 L 235.70100000000002 410.701 L 57.40100000000001 232.401 C 37.80100000000001 212.80100000000002 27.001000000000012 186.80100000000002 27.001000000000012 159.101 C 27.001000000000012 131.40099999999998 37.70100000000001 105.401 57.301000000000016 85.901 C 76.80100000000002 66.401 102.80100000000002 55.601 130.401 55.601 C 158.101 55.601 184.20100000000002 66.401 203.80100000000002 86.001 L 226.401 108.601 C 231.70100000000002 113.901 240.20100000000002 113.901 245.501 108.601 L 267.901 86.201 C 287.50100000000003 66.601 313.601 55.800999999999995 341.201 55.800999999999995 C 368.80100000000004 55.800999999999995 394.80100000000004 66.601 414.401 86.101 C 434.00100000000003 105.701 444.701 131.701 444.701 159.401 C 444.801 187.101 434.001 213.101 414.401 232.701 z" stroke-linecap="round" />
</g>
<g transform="matrix(3.45 0 0 3.45 447.1 473.23)" id="39e0dd96-66b8-4ede-963c-d7cbd8dd68cf"  >
<circle style="stroke: rgb(0,0,0); stroke-width: 0; stroke-dasharray: none; stroke-linecap: butt; stroke-dashoffset: 0; stroke-linejoin: miter; stroke-miterlimit: 4; fill: rgb(0,0,0); fill-rule: nonzero; opacity: 1;" vector-effect="non-scaling-stroke"  cx="0" cy="0" r="35" />
</g>
<g transform="matrix(3.49 0 0 3.49 641.49 464.55)" id="7263eec6-d60d-420f-ac2d-7ecd24f11c76"  >
<circle style="stroke: rgb(0,0,0); stroke-width: 0; stroke-dasharray: none; stroke-linecap: butt; stroke-dashoffset: 0; stroke-linejoin: miter; stroke-miterlimit: 4; fill: rgb(0,0,0); fill-rule: nonzero; opacity: 1;" vector-effect="non-scaling-stroke"  cx="0" cy="0" r="35" />
</g>
<g transform="matrix(2.3 2.3 -2.3 2.3 540 570.88)" id="910d7be5-e3e2-42f4-8efd-54ce6f10252e"  >
<rect style="stroke: rgb(0,0,0); stroke-width: 0; stroke-dasharray: none; stroke-linecap: butt; stroke-dashoffset: 0; stroke-linejoin: miter; stroke-miterlimit: 4; fill: rgb(0,0,0); fill-rule: nonzero; opacity: 1;" vector-effect="non-scaling-stroke"  x="-33.0835" y="-33.0835" rx="0" ry="0" width="66.167" height="66.167" />
</g>
</svg>